<?xml version="1.0" encoding="UTF-8"?>
<svg id="_Слой_2" data-name="Слой 2" xmlns="http://www.w3.org/2000/svg" viewBox="0 0 432.86 101.24">
  <defs>
    <style>
      .cls-1 {
        fill: #fff;
        stroke-width: 0px;
      }
    </style>
  </defs>
  <g id="_Слой_1-2" data-name="Слой 1">
    <g>
      <path class="cls-1" d="M154.9,55.71c0,6-1.6,11.08-4.81,15.24-3.21,4.16-7.56,6.24-13.05,6.24-3.67,0-6.23-1.1-7.68-3.31-1.46-2.2-2.19-5.43-2.19-9.68V26.48h-15.86v40.97c0,16.16,7.37,24.23,22.11,24.23,5.08,0,9.62-1.33,13.62-4,4-2.66,6.83-5.79,8.49-9.37h.25l-.37,4.37v7.49h15.24V26.48h-15.74v29.23Z"/>
      <path class="cls-1" d="M233.05,31.67c-4.67-4.45-11.16-6.69-19.48-6.69-4.58,0-9.2.78-13.86,2.32-4.67,1.54-8.37,3.39-11.12,5.56l5.87,11.36c6-4.08,11.91-6.12,17.74-6.12,7.99,0,11.99,3.75,11.99,11.24v.88h-2.75c-4.17,0-8.15.29-11.93.88-3.79.58-7.7,1.6-11.75,3.06-4.04,1.46-7.29,3.77-9.74,6.93-2.46,3.16-3.68,6.99-3.68,11.49,0,5.66,2.02,10.26,6.06,13.8,4.05,3.55,9.01,5.31,14.93,5.31,4.25,0,8.16-1.06,11.74-3.19,3.59-2.13,6.37-4.89,8.37-8.31h.25l-.38,4.62v5.37h14.74v-39.85c0-7.99-2.33-14.22-6.99-18.67ZM224.31,62.83c0,4.17-1.37,8-4.12,11.49-2.75,3.5-6.25,5.25-10.49,5.25-2.99,0-5.35-.84-7.05-2.5-1.7-1.67-2.56-3.62-2.56-5.87,0-6.75,7.15-10.12,21.48-10.12h2.75v1.74Z"/>
      <path class="cls-1" d="M295.38,56.02c-3.08-1.37-6.18-2.6-9.31-3.68-3.12-1.08-5.77-2.29-7.93-3.62-2.17-1.33-3.25-2.91-3.25-4.75,0-4.08,2.95-6.12,8.87-6.12,2.83,0,5.77.52,8.81,1.56,3.04,1.04,5.47,2.35,7.31,3.93l5.87-11.12c-5.5-4.83-12.66-7.24-21.48-7.24-6.99,0-12.8,1.69-17.42,5.06-4.62,3.37-6.93,8.06-6.93,14.05,0,3.83,1.08,7.12,3.25,9.87,2.16,2.75,4.81,4.85,7.93,6.31,3.12,1.46,6.22,2.73,9.31,3.81,3.08,1.08,5.7,2.29,7.87,3.62,2.16,1.33,3.25,2.92,3.25,4.75,0,2-.77,3.56-2.31,4.68-1.54,1.12-3.73,1.69-6.56,1.69-6.99,0-13.03-2.33-18.11-6.99l-7.12,10.49c6.5,6.24,14.82,9.37,24.98,9.37,7.24,0,13.07-1.85,17.49-5.56,4.41-3.7,6.62-8.39,6.62-14.05,0-3.83-1.08-7.12-3.25-9.87-2.17-2.75-4.79-4.81-7.87-6.18Z"/>
      <path class="cls-1" d="M369.7,31.67c-4.67-4.45-11.16-6.69-19.49-6.69-4.58,0-9.2.78-13.86,2.32-4.66,1.54-8.37,3.39-11.12,5.56l5.87,11.36c6-4.08,11.91-6.12,17.73-6.12,8,0,11.99,3.75,11.99,11.24v.88h-2.75c-4.16,0-8.14.29-11.92.88-3.79.58-7.71,1.6-11.75,3.06-4.04,1.46-7.29,3.77-9.74,6.93s-3.68,6.99-3.68,11.49c0,5.66,2.02,10.26,6.06,13.8,4.04,3.55,9.01,5.31,14.92,5.31,4.25,0,8.16-1.06,11.75-3.19,3.58-2.13,6.37-4.89,8.37-8.31h.25l-.38,4.62v5.37h14.74v-39.85c0-7.99-2.33-14.22-6.99-18.67ZM360.96,62.83c0,4.17-1.37,8-4.12,11.49-2.75,3.5-6.25,5.25-10.49,5.25-3,0-5.35-.84-7.05-2.5-1.71-1.67-2.56-3.62-2.56-5.87,0-6.75,7.16-10.12,21.49-10.12h2.75v1.74Z"/>
      <path class="cls-1" d="M429.86,25.61c-4.66,0-8.83,1.58-12.49,4.75-3.67,3.17-6.25,7.08-7.74,11.74h-.25l.25-4.37v-11.24h-15.24v63.7h15.86v-25.73c0-6.49,1.58-11.99,4.75-16.49,3.16-4.5,7.83-6.74,13.99-6.74,1.75,0,3.04.08,3.87.25v-15.61c-1.33-.17-2.33-.25-3-.25Z"/>
      <g>
        <path class="cls-1" d="M0,45.34c0,13.07,4.33,24.07,12.99,32.98,8.66,8.91,19.61,13.36,32.85,13.36,2.04,0,4.03-.12,5.97-.35-3.12-3.95-6.16-8.76-8.55-14.49-7.19-.57-13.29-3.55-18.28-8.96-5.58-6.03-8.37-13.55-8.37-22.55,0-8.74,2.79-16.03,8.37-21.86,5.57-5.83,12.53-8.74,20.86-8.74,8.32,0,15.28,2.92,20.86,8.74,5.58,5.83,8.37,13.11,8.37,21.86,0,.38,0,.76-.02,1.14,6.02,2.98,11.08,6.53,15.25,10.12.92-3.62,1.38-7.36,1.38-11.25,0-12.9-4.31-23.69-12.93-32.35C70.14,4.33,59.16,0,45.84,0S21.65,4.35,12.99,13.05C4.33,21.76,0,32.52,0,45.34Z"/>
        <path class="cls-1" d="M48.47,77.93c.78,1.36,1.59,2.65,2.43,3.87h0c1.75,2.98,3.63,5.57,5.47,7.78.21.27.45.55.68.82,1.56,1.8,3.54,3.72,6.06,5.47,4.92,3.42,9.76,4.77,12.92,5.34.89.16,1.7-.53,1.69-1.43-.02-2.2-.25-5.23-1.17-8.66,1.27,1.14,2.88,2.3,4.41,3.37,5.52,3.84,10.95,5.35,14.49,5.99.99.18,1.9-.59,1.9-1.6-.02-3.98-.68-10.42-4.25-17.23-.94-1.8-1.97-3.39-3.01-4.8-.44-.6-.88-1.16-1.33-1.7.78.38,1.53.69,2.23.94,1.14.4,2.17.64,3.01.8.53.1,1.01-.31,1.01-.84,0-.85-.06-1.92-.26-3.13-.23-1.44-.66-3.09-1.42-4.82-.17-.39-.36-.79-.57-1.19-.71-1.34-1.93-2.95-2.84-4.08-.85-1.06-1.79-2.03-2.83-2.92-1.39-1.19-2.89-2.36-4.48-3.52-.02-.02-.05-.03-.08-.05-2.43-1.74-5.09-3.42-8.01-4.96-11.45-6.22-22.6-8.74-31.4-9.73-1.05-.12-2,.67-2.06,1.73-.57,9.77.49,22.48,7.39,34.54ZM49.32,58c0-3.55,2.87-6.42,6.42-6.42s6.42,2.87,6.42,6.42-2.88,6.41-6.42,6.41c-3.55,0-6.42-2.87-6.42-6.41Z"/>
      </g>
    </g>
  </g>
</svg>