<?xml version="1.0" encoding="UTF-8"?>
<svg id="_Слой_2" data-name="Слой 2" xmlns="http://www.w3.org/2000/svg" viewBox="0 0 208.06 216.36">
  <defs>
    <style>
      .cls-1 {
        fill: #fff;
        stroke-width: 0px;
      }
    </style>
  </defs>
  <g id="_Слой_1-2" data-name="Слой 1">
    <g>
      <path class="cls-1" d="M0,96.89c0,27.94,9.25,51.43,27.76,70.48,18.51,19.03,41.9,28.55,70.2,28.55,4.36,0,8.61-.25,12.76-.74-6.68-8.45-13.17-18.72-18.28-30.96-15.37-1.21-28.4-7.6-39.06-19.15-11.93-12.9-17.88-28.96-17.88-48.18,0-18.69,5.96-34.26,17.88-46.71,11.91-12.45,26.77-18.69,44.57-18.69,17.78,0,32.65,6.23,44.57,18.69,11.93,12.45,17.88,28.02,17.88,46.71,0,.8-.02,1.62-.03,2.43,12.86,6.37,23.67,13.96,32.58,21.62,1.97-7.73,2.95-15.73,2.95-24.05,0-27.58-9.2-50.63-27.63-69.13C149.88,9.25,126.42,0,97.96,0c-28.3,0-51.69,9.3-70.2,27.89C9.25,46.49,0,69.5,0,96.89Z"/>
      <path class="cls-1" d="M103.59,166.54c1.66,2.9,3.4,5.66,5.2,8.27l.02-.02c3.74,6.38,7.76,11.93,11.68,16.65.46.57.95,1.16,1.46,1.76,3.33,3.86,7.56,7.94,12.94,11.7,10.52,7.32,20.87,10.2,27.61,11.42,1.9.34,3.63-1.13,3.61-3.05-.03-4.69-.53-11.17-2.51-18.51,2.71,2.43,6.15,4.92,9.42,7.2,11.8,8.2,23.39,11.43,30.97,12.8,2.12.39,4.07-1.26,4.07-3.41-.05-8.5-1.46-22.26-9.09-36.81-2-3.84-4.2-7.23-6.43-10.25-.94-1.28-1.89-2.48-2.84-3.63,1.66.82,3.26,1.48,4.77,2.02,2.44.85,4.64,1.38,6.43,1.71,1.13.21,2.17-.66,2.15-1.8-.02-1.82-.13-4.1-.56-6.69-.49-3.08-1.41-6.61-3.04-10.3-.36-.84-.77-1.69-1.21-2.54-1.51-2.87-4.13-6.3-6.07-8.73-1.82-2.26-3.82-4.35-6.04-6.23-2.97-2.54-6.17-5.05-9.58-7.53-.05-.03-.11-.07-.16-.11-5.18-3.72-10.88-7.32-17.11-10.6-24.48-13.29-48.3-18.69-67.1-20.79-2.25-.26-4.27,1.43-4.4,3.69-1.21,20.88,1.05,48.04,15.8,73.81ZM105.39,123.95c0-7.58,6.14-13.72,13.72-13.72,7.56,0,13.72,6.14,13.72,13.72,0,7.56-6.15,13.7-13.72,13.7-7.58,0-13.72-6.14-13.72-13.7Z"/>
    </g>
  </g>
</svg>